<?xml version="1.0" encoding="UTF-8" standalone="no"?><!DOCTYPE svg PUBLIC "-//W3C//DTD SVG 1.1//EN" "http://www.w3.org/Graphics/SVG/1.1/DTD/svg11.dtd"><svg width="100%" height="100%" viewBox="0 0 400 400" version="1.1" xmlns="http://www.w3.org/2000/svg" xmlns:xlink="http://www.w3.org/1999/xlink" xml:space="preserve" xmlns:serif="http://www.serif.com/" style="fill-rule:evenodd;clip-rule:evenodd;stroke-linejoin:round;stroke-miterlimit:2;"><g id="layer3"><path id="MainColorLayer" d="M396.004,199.998c-0,108.248 -87.753,195.995 -195.995,195.995c-108.248,-0 -195.995,-87.753 -195.995,-195.995c0,-108.248 87.753,-195.994 195.995,-195.994c108.248,-0 195.995,87.752 195.995,195.994Z" style="fill:#6c96e0;fill-rule:nonzero;"/><path id="path3437-9" d="M356.178,199.999c0,86.253 -69.922,156.171 -156.171,156.171c-86.253,-0 -156.171,-69.923 -156.171,-156.171c0,-86.254 69.923,-156.171 156.171,-156.171c86.254,-0 156.171,69.922 156.171,156.171Z" style="fill-opacity:0.3;fill-rule:nonzero;"/><path id="path3471-6" d="M200,4.121c-108.18,0 -195.88,87.698 -195.88,195.88c0,108.182 87.698,195.88 195.88,195.88c108.182,0 195.88,-87.7 195.88,-195.88c0,-108.18 -87.7,-195.88 -195.88,-195.88Zm0,2.662c106.71,-0 193.22,86.506 193.22,193.22c0,106.714 -86.51,193.22 -193.22,193.22c-106.71,-0 -193.22,-86.51 -193.22,-193.22c0,-106.71 86.506,-193.22 193.22,-193.22Z" style="fill-opacity:0.3;fill-rule:nonzero;"/></g></svg>